<?xml version="1.0" encoding="UTF-8"?>
<svg version="1.1" xmlns="http://www.w3.org/2000/svg" width="500" height="500">
<path d="M0 0 C0.78403682 0.00582568 1.56807364 0.01165137 2.37586915 0.01765358 C3.20653913 0.01594473 4.03720911 0.01423589 4.89305091 0.01247525 C7.69229063 0.00916611 10.49129364 0.02020736 13.29051149 0.03111184 C15.290781 0.03167564 17.29105093 0.03135999 19.2913202 0.03022683 C24.735279 0.02965112 30.17915032 0.0414406 35.62308872 0.05537474 C41.30725895 0.06784589 46.99143101 0.06904974 52.67561281 0.07142556 C63.44556128 0.07765099 74.21546932 0.09407614 84.98539996 0.11412454 C99.53446784 0.1406221 114.08354671 0.15144759 128.63263261 0.16312897 C151.56468374 0.18195601 174.49664954 0.22179462 197.42869508 0.25816262 C197.42869508 38.20816262 197.42869508 76.15816262 197.42869508 115.25816262 C169.61588258 115.72222512 169.61588258 115.72222512 141.24119508 116.19566262 C135.40794557 116.33222268 129.57469606 116.46878273 123.56468141 116.60948098 C116.38706911 116.67723 116.38706911 116.67723 113.01638734 116.6898185 C110.68485392 116.71270711 108.3534875 116.76516871 106.02310121 116.84179604 C85.34134136 117.48727038 85.34134136 117.48727038 79.13264406 112.06947243 C76.25804906 109.03008022 73.93212704 105.75638955 71.71896875 102.21518052 C69.55276753 98.92960268 66.9175372 96.06486529 64.30369508 93.13316262 C63.30904317 91.97642298 62.31654332 90.81782594 61.32713258 89.65660012 C60.84470094 89.09166848 60.3622693 88.52673684 59.86521852 87.94468606 C57.09167729 84.68846192 54.332164 81.42039138 51.57273805 78.15220559 C48.20944002 74.17192131 44.82354838 70.21155219 41.42869508 66.25816262 C37.12102607 61.24177685 32.83874934 56.20494158 28.57322633 51.15269387 C25.20967044 47.17232543 21.82356537 43.21184132 18.42869508 39.25816262 C13.61374685 33.64758634 8.80388719 28.03313586 4.05369508 22.36753762 C2.31044617 20.28964717 0.53854584 18.24250419 -1.25880492 16.21128762 C-2.08380492 15.25738137 -2.90880492 14.30347512 -3.75880492 13.32066262 C-4.4948596 12.48663918 -5.23091429 11.65261574 -5.98927367 10.79331887 C-7.92804348 7.68650008 -8.03702089 5.85869792 -7.57130492 2.25816262 C-5.0381159 -0.2750264 -3.45470635 0.01934574 0 0 Z " fill="#E82432" transform="translate(226.5713049173355,302.7418373823166)"/>
<path d="M0 0 C28.70809764 -0.32130935 28.70809764 -0.32130935 42.89754391 -0.40203094 C50.56922488 -0.44634863 58.24020936 -0.50259282 65.91137695 -0.60351562 C72.63526821 -0.69193359 79.35825 -0.73827918 86.08274651 -0.75901794 C88.64767256 -0.77379602 91.2125575 -0.80265497 93.77716255 -0.84584045 C97.37130864 -0.90395353 100.9623442 -0.91191123 104.55688477 -0.90820312 C105.6164035 -0.93696533 106.67592224 -0.96572754 107.76754761 -0.99536133 C114.85770614 -0.91625459 114.85770614 -0.91625459 118.16911125 1.73988342 C119.94045388 3.74955246 121.47700781 5.79913881 123 8 C124.6607536 9.83869148 126.32676908 11.6726557 128 13.5 C130.84524228 16.61907011 133.6719958 19.74755391 136.4375 22.9375 C139.39883456 26.34688518 142.44150305 29.67796376 145.5 33 C149.12087545 36.9328728 152.68958864 40.90213942 156.19140625 44.94140625 C158.4301125 47.4895665 160.71410212 49.99410593 163 52.5 C165.84524228 55.61907011 168.6719958 58.74755391 171.4375 61.9375 C174.39883456 65.34688518 177.44150305 68.67796376 180.5 72 C184.11838552 75.93016832 187.68545251 79.89598012 191.18359375 83.93359375 C193.46426223 86.52816068 195.7946456 89.07499512 198.125 91.625 C198.970625 92.56085938 199.81625 93.49671875 200.6875 94.4609375 C202.01984791 95.9238195 203.36638923 97.37456756 204.75 98.7890625 C207.40765899 101.61282518 207.99354241 102.9199259 208.3125 106.875 C208.1578125 108.421875 208.1578125 108.421875 208 110 C204.83034766 111.58482617 201.41902918 111.13299404 197.93893433 111.12025452 C196.67455337 111.12153615 196.67455337 111.12153615 195.38462937 111.12284368 C192.543996 111.1244983 189.70342095 111.1189774 186.86279297 111.11352539 C184.83296714 111.11324349 182.8031412 111.11340131 180.77331543 111.1139679 C175.24880779 111.11425575 169.7243217 111.10836089 164.19981909 111.10139394 C158.43156384 111.09515847 152.66330815 111.09455645 146.89505005 111.09336853 C135.96574436 111.09025579 125.03644863 111.08204316 114.10714734 111.07201904 C99.34281977 111.05877039 84.57848949 111.05335754 69.81415749 111.04751682 C46.54276419 111.03810323 23.27139192 111.01818393 0 111 C0 74.37 0 37.74 0 0 Z " fill="#1B3A6D" transform="translate(87,106)"/>
<path d="M0 0 C2.46013479 2.46013479 2.23787384 3.82181467 2.25816262 7.1787082 C2.24942409 8.26721709 2.24942409 8.26721709 2.24050903 9.37771606 C2.24221788 10.14713276 2.24392673 10.91654945 2.24568737 11.7092818 C2.24899563 14.30123545 2.23795675 16.89293327 2.22705078 19.48486328 C2.22648696 21.33735142 2.22680267 23.18984 2.22793579 25.04232788 C2.22851142 30.08340984 2.21672316 35.12439732 2.20278788 40.16545725 C2.19031548 45.42921887 2.18911278 50.69298247 2.18673706 55.95675659 C2.180512 65.92984735 2.16408734 75.90289445 2.14403808 85.87596595 C2.11753905 99.34877106 2.10671473 112.82158804 2.09503365 126.29441261 C2.07620744 147.52964114 2.0363686 168.76477751 2 190 C-36.61 190 -75.22 190 -115 190 C-115.28875 172.901875 -115.5775 155.80375 -115.875 138.1875 C-116.00245605 132.80590576 -116.12991211 127.42431152 -116.26123047 121.87963867 C-116.32446289 115.26428223 -116.32446289 115.26428223 -116.33621216 112.15888977 C-116.35759288 110.00812635 -116.40659554 107.85752216 -116.47805786 105.70783997 C-117.03587677 88.03104151 -117.03587677 88.03104151 -113.63660431 82.97015762 C-109.94496997 79.07387466 -105.66415619 76.57971216 -101 74 C-99.37107813 72.78243512 -97.75954527 71.54016447 -96.1875 70.25 C-94.79187367 69.1664 -93.39604287 68.08306329 -92 67 C-84.31164486 61.02735684 -76.64878382 55.02319335 -69 49 C-60.5823096 42.37131523 -52.14239362 35.77238628 -43.68164062 29.19873047 C-39.02837933 25.58184131 -34.38291017 21.9554214 -29.75 18.3125 C-29.19594482 17.87687744 -28.64188965 17.44125488 -28.07104492 16.99243164 C-25.08830717 14.64595309 -22.10807902 12.29631516 -19.12890625 9.9453125 C-18.49049805 9.44217529 -17.85208984 8.93903809 -17.19433594 8.4206543 C-15.97156848 7.45693967 -14.74952175 6.49230962 -13.52832031 5.52661133 C-5.87832595 -0.50028306 -5.87832595 -0.50028306 0 0 Z " fill="#E82331" transform="translate(202,228)"/>
<path d="M0 0 C38.28 0 76.56 0 116 0 C116.28875 17.263125 116.5775 34.52625 116.875 52.3125 C117.00245605 57.74630127 117.12991211 63.18010254 117.26123047 68.77856445 C117.32446289 75.45739746 117.32446289 75.45739746 117.33621216 78.592453 C117.35759471 80.76404577 117.40660107 82.93548068 117.47805786 85.10600281 C118.0348029 102.92096403 118.0348029 102.92096403 114.66983795 108.01278305 C111.50201496 111.38486107 107.89036257 113.72046763 103.85018826 115.92209911 C100.69292146 117.76149068 97.96039919 120.07677073 95.125 122.375 C94.48264404 122.87813721 93.84028809 123.38127441 93.1784668 123.8996582 C88.72483001 127.4054426 84.32732498 130.97730165 79.9375 134.5625 C74.09927131 139.32857192 68.18820542 143.97616782 62.19921875 148.55078125 C53.66022769 155.07380393 45.26052665 161.76677112 36.9375 168.5625 C30.98088274 173.42443023 24.96719565 178.19195564 18.8359375 182.83203125 C17.08534841 184.1702915 15.35592588 185.53744647 13.6640625 186.94921875 C10.20881077 189.78887965 8.63540684 190.92939924 4.0625 191.4375 C1 191 1 191 0 190 C-0.09769877 187.54629379 -0.12996241 185.1207683 -0.12025452 182.66661072 C-0.12110894 181.88988134 -0.12196337 181.11315197 -0.12284368 180.31288534 C-0.12450084 177.69025678 -0.11897329 175.0676911 -0.11352539 172.44506836 C-0.11324354 170.57302349 -0.1134012 168.70097852 -0.1139679 166.82893372 C-0.11425597 161.7299724 -0.10835769 156.63103438 -0.10139394 151.5320785 C-0.09516199 146.20958367 -0.09455673 140.88708837 -0.09336853 135.56459045 C-0.09025474 125.47815109 -0.08204072 115.39172251 -0.07201904 105.3052879 C-0.05877456 91.68080592 -0.05335838 78.05632101 -0.04751682 64.43183422 C-0.03810085 42.95454807 -0.01818226 21.47728466 0 0 Z " fill="#E82331" transform="translate(308,103)"/>
</svg>
